<svg width="58" height="45" viewBox="0 0 58 45" fill="none" xmlns="http://www.w3.org/2000/svg">
<path d="M12.3 8.18296V0.528061H16.0399V19.803H12.3V11.8177H5.20234V19.803H1.43515V0.528061H5.20234V8.18296H12.3ZM20.3541 4.38305C19.7717 4.38305 19.2622 4.17193 18.8254 3.74973C18.4068 3.30916 18.1975 2.79516 18.1975 2.20773C18.1975 1.62031 18.4068 1.10631 18.8254 0.665739C19.2622 0.225168 19.7717 0.00488281 20.3541 0.00488281C20.9547 0.00488281 21.4642 0.225168 21.8828 0.665739C22.3196 1.10631 22.538 1.62031 22.538 2.20773C22.538 2.79516 22.3196 3.30916 21.8828 3.74973C21.4642 4.17193 20.9547 4.38305 20.3541 4.38305ZM22.1285 19.803H18.607V6.03519H22.1285V19.803ZM34.988 7.74239V6.03519H38.4276V19.1421C38.4276 21.2532 37.7268 22.8778 36.3256 24.0159C34.9425 25.1357 33.2682 25.6956 31.3027 25.6956C28.2089 25.6956 26.0523 24.5758 24.833 22.3363L27.8358 20.6015C28.5092 21.8865 29.7012 22.529 31.4119 22.529C32.5221 22.529 33.3956 22.2353 34.0326 21.6479C34.6695 21.0605 34.988 20.2252 34.988 19.1421V17.6552C33.9507 19.0504 32.4948 19.7479 30.6203 19.7479C28.6911 19.7479 27.0714 19.0687 25.7611 17.7103C24.469 16.3151 23.8229 14.6447 23.8229 12.6988C23.8229 10.7529 24.4781 9.09164 25.7884 7.71486C27.0987 6.33808 28.7094 5.64969 30.6203 5.64969C32.4948 5.64969 33.9507 6.34724 34.988 7.74239ZM33.8961 15.4248C34.6241 14.7089 34.988 13.8002 34.988 12.6988C34.988 11.5974 34.6241 10.7071 33.8961 10.0279C33.1863 9.31192 32.2764 8.95396 31.1662 8.95396C30.0743 8.95396 29.1552 9.31192 28.4091 10.0279C27.6993 10.7071 27.3444 11.5974 27.3444 12.6988C27.3444 13.8002 27.6993 14.7089 28.4091 15.4248C29.137 16.1224 30.0561 16.4712 31.1662 16.4712C32.2764 16.4712 33.1863 16.1224 33.8961 15.4248ZM48.3908 5.64969C49.9016 5.64969 51.13 6.15449 52.0761 7.16415C53.0589 8.19213 53.5503 9.58728 53.5503 11.3496V19.803H50.0288V11.7901C50.0288 10.8906 49.7831 10.1931 49.2917 9.69742C48.8186 9.20178 48.1635 8.95396 47.3262 8.95396C46.398 8.95396 45.661 9.24769 45.115 9.8351C44.5874 10.4042 44.3234 11.2486 44.3234 12.3684V19.803H40.8019V0.528061H44.3234V7.57718C45.1606 6.29217 46.5166 5.64969 48.3908 5.64969ZM0.015625 25.3101H14.0744V28.9448H8.91494V44.5851H5.14775V28.9448H0.015625V25.3101ZM16.9834 30.8172V33.1853C17.2927 32.3225 17.8205 31.6709 18.5667 31.2303C19.3128 30.7713 20.1682 30.5419 21.1327 30.5419V34.507C20.059 34.3602 19.0944 34.5805 18.2391 35.1679C17.4019 35.737 16.9834 36.6823 16.9834 38.004V44.5851H13.4619V30.8172H16.9834ZM24.1204 29.1651C23.538 29.1651 23.0285 28.954 22.5917 28.5318C22.1731 28.0912 21.9639 27.5772 21.9639 26.9898C21.9639 26.4024 22.1731 25.8884 22.5917 25.4478C23.0285 25.0072 23.538 24.7869 24.1204 24.7869C24.721 24.7869 25.2306 25.0072 25.6492 25.4478C26.0859 25.8884 26.3043 26.4024 26.3043 26.9898C26.3043 27.5772 26.0859 28.0912 25.6492 28.5318C25.2306 28.954 24.721 29.1651 24.1204 29.1651ZM25.8948 44.5851H22.3733V30.8172H25.8948V44.5851ZM36.2429 30.4317C38.081 30.4317 39.646 31.1385 40.9383 32.552C42.2487 33.9655 42.9038 35.6819 42.9038 37.7012C42.9038 39.7573 42.2487 41.4826 40.9383 42.8778C39.6643 44.2731 38.0993 44.9706 36.2429 44.9706C34.332 44.9706 32.8579 44.3007 31.8205 42.9605V44.5851H28.299V25.3101H31.8205V32.4418C32.8579 31.1018 34.332 30.4317 36.2429 30.4317ZM32.8852 40.5098C33.5949 41.2257 34.4958 41.5837 35.5877 41.5837C36.6797 41.5837 37.5806 41.2257 38.2904 40.5098C39.0181 39.7754 39.3823 38.8392 39.3823 37.7012C39.3823 36.563 39.0181 35.636 38.2904 34.9201C37.5806 34.1858 36.6797 33.8186 35.5877 33.8186C34.4958 33.8186 33.5949 34.1858 32.8852 34.9201C32.1754 35.636 31.8205 36.563 31.8205 37.7012C31.8205 38.8392 32.1754 39.7754 32.8852 40.5098ZM57.8354 39.1605H47.5438C47.9989 40.8862 49.282 41.7489 51.3929 41.7489C52.7395 41.7489 53.7589 41.2898 54.4504 40.3721L57.2894 42.0242C55.9428 43.9883 53.959 44.9706 51.3383 44.9706C49.0815 44.9706 47.2709 44.2822 45.9059 42.9054C44.541 41.5286 43.8585 39.7939 43.8585 37.7012C43.8585 35.6451 44.532 33.9196 45.8786 32.5245C47.2073 31.1293 48.9361 30.4317 51.0653 30.4317C53.0854 30.4317 54.7323 31.1293 56.0064 32.5245C57.3167 33.9196 57.9719 35.6451 57.9719 37.7012C57.9719 38.0867 57.9263 38.5732 57.8354 39.1605ZM47.4892 36.407H54.4504C54.2503 35.5075 53.8408 34.8191 53.2219 34.3418C52.6214 33.8645 51.9026 33.6259 51.0653 33.6259C50.1189 33.6259 49.3366 33.8737 48.7177 34.3693C48.0988 34.8466 47.6893 35.5258 47.4892 36.407Z" fill="#000"/>
</svg>
